# xmcd CD database file
# Copyright (C) 1993-1998 Ti Kan
#
# Track frame offsets:
#  150
#  19617
#  39367
#  59400
#  83710
#  111945
#  134582
#  163650
#  191042
#  208727
#
# Disc length: 3132 seconds
#
# Revision: 1
# Processed by: cddbd v1.4b41PL1 Copyright (c) Steve Scherf et al.
# Submitted via: CDWizzard Release:4.35
#
DISCID=890c3a0a
DTITLE=O'Landa Draper - Do It Again
DYEAR=1900
DGENRE=
TTITLE0=He Touched Me
TTITLE1=I See My Miracle
TTITLE2=With Christ It Can Be Done
TTITLE3=Just Because
TTITLE4=In The Garden
TTITLE5=Do It Again
TTITLE6=Keep Me Jesus
TTITLE7=Never Depart
TTITLE8=It's Just Jesus
TTITLE9=Lord, I Thank You
EXTD=
EXTT0=
EXTT1=
EXTT2=
EXTT3=
EXTT4=
EXTT5=
EXTT6=
EXTT7=
EXTT8=
EXTT9=
PLAYORDER=
